<svg xmlns="http://www.w3.org/2000/svg" viewBox="0 0 48 48">
  <path fill="#4caf50" d="M45,16.2l-5,2.75l-5,4.75V40h10c1.657,0,3-1.343,3-3V16.2z"/>
  <path fill="#1e88e5" d="M3,16.2l3.614,1.71L13,23.7V40H3c-1.657,0-3-1.343-3-3V16.2z"/>
  <polygon fill="#e53935" points="35,11.2 24,19.45 13,11.2 12,17 13,23.7 24,31.95 35,23.7 36,17"/>
  <path fill="#c62828" d="M3,12.298V16.2l10,7.5V11.2L9.876,8.964C9.132,8.401,8.228,8,7.298,8h0C4.619,8,3,9.619,3,12.298z"/>
  <path fill="#fbc02d" d="M45,12.298V16.2l-10,7.5V11.2l3.124-2.236C38.868,8.401,39.772,8,40.702,8h0C43.381,8,45,9.619,45,12.298z"/>
</svg>
